<?xml version="1.0" encoding="UTF-8"?>
<svg id="Layer_1" data-name="Layer 1" xmlns="http://www.w3.org/2000/svg" viewBox="0 0 964.83 181.74">
  <defs>
    <style>
      .cls-1 {
        fill: #fff;
      }
    </style>
  </defs>
  <path class="cls-1" d="M408.5,86.78c2.03,3.29,7.17,2.92,8.71-.6,12.47-28.59,22.85-53.53,31.12-74.81,1.49-3.83,2.68-6.22,3.56-7.18s2.38-1.44,4.48-1.44c1.76,0,3.28,.42,4.55,1.25,1.27,.83,1.91,1.83,1.91,3,0,1.08-3.42,9-10.26,23.74l-7.63,16.25-61.31,132c-1.64,3.53-6.85,3.71-8.76,.31l-27.8-49.63-21.23-35.91c-1.87-3.17-6.69-3.14-8.52,.04l-15.91,27.63-30.65,54.54-1.47,2.73c-1.9,3.53-7.28,3.3-8.85-.37l-21.41-50.11-22.39-51.61c-11.06-25.91-21.73-49.19-32-69.86l-.79-1.62h79.01c2,0,3.81,1.17,4.54,2.94l10.12,24.54c9.42,22.33,17.25,40.12,23.47,53.38,1.64,3.49,6.79,3.68,8.72,.32l19.72-34.34,8.96-15.99,6.06-10.74,10.15-17.99s.03-.06,.05-.09c1.81-3.34,6.85-3.31,8.65,.03l15.27,28.26c9.69,17.57,19.67,34.68,29.94,51.33Z"/>
  <g>
    <path class="cls-1" d="M95.41,0c13.86,0,27.24,2.79,40.14,8.37,18.95,8.25,33.43,20.95,43.43,38.11,7.98,13.75,11.98,28.7,11.98,44.86,0,13-3.03,25.58-9.08,37.74-9.04,18.16-23.12,31.95-42.24,41.36-14.04,6.91-28.78,10.37-44.22,10.37-16.32,0-31.76-3.92-46.32-11.75-19.39-10.33-33.21-24.83-41.45-43.49C2.54,114.18,0,102.39,0,90.22c0-15.25,3.99-29.78,11.98-43.61C21.8,29.62,36.14,16.91,55.01,8.5,67.55,2.92,81.02,.08,95.41,0Zm-6.11,7.84c-2.43,.21-4.3,2.13-4.32,4.45l-.75,77.43,.66,67.61,.13,15.25c2.98,.5,5.83,.75,8.55,.75,19.39,0,36.72-5.08,51.98-15.25,13.95-9.33,24.04-21.33,30.27-35.99,4.39-10.25,6.58-20.87,6.58-31.87,0-14.5-3.68-27.99-11.05-40.49-9.04-15.33-21.76-26.62-38.16-33.87-12.28-5.5-25.22-8.25-38.82-8.25-1.7,0-3.38,.07-5.06,.22Z"/>
    <path class="cls-1" d="M143.73,160.53c.12,.91-.78,1.65-1.63,2.08s-1.85,.85-2.2,1.71c-8.2,4.23-17.46,7.28-26.7,8.49-4.71,.62-9.46,.82-14.21,1.02-3.73,.16-7.45,.32-11.18,.48-2.44,.1-5.14,.13-7.02-1.35-1.87-1.48-2.34-3.98-2.66-6.27-2.43-17.75-2.75-35.76-.96-53.57,.37-3.68,1.05-7.75,4.12-10.02,.03,4.03,.21,8.06,.53,12.08,.33,4.14,.82,8.3,2.24,12.22,1.05,2.89,2.59,5.6,4.24,8.22,3.15,5.01,6.75,9.78,10.95,14.04,2.2,2.24,4.57,4.33,7.1,6.23,2.59,1.94,4.6,4.2,7.72,2.57l29.66,2.08Z"/>
    <path class="cls-1" d="M86.1,141.75c10.79,4.41,21.15,9.78,32.07,13.89,10.93,4.11,22.66,6.95,34.37,5.98"/>
    <path class="cls-1" d="M143.75,156.18c0,.18,.19,.3,.37,.35,.38,.1,.79-.04,1.17,.06,.36,.09,.62,.38,.96,.51,.41,.16,.88,.09,1.31-.03,.64-.19,1.24-.48,1.83-.78,.54-.27,1.08-.54,1.54-.92,.48-.4,.84-.9,1.2-1.39,.2-.28,.4-.55,.6-.83,.09-.13,.19-.26,.22-.41-1.36,.56-2.55,1.44-3.89,2.03-1.19,.52-2.47,.82-3.74,1.11-.58,.13-1.54,.25-2.13,.24-.44,0-.88,0-1.32,0-3.77-.06-7.55-.11-11.29-.6-11.93-1.55-23.03-7.56-31.11-16.03s-13.22-19.31-15.33-30.57c-1.82,.08-3.28,2.03-3.95,3.65-2.98,7.19-5.56,14.72-5.4,22.45,.12,5.9,1.84,11.67,3.92,17.23,.83,2.21,1.73,4.43,3.16,6.35,1.76,2.37,4.22,4.16,6.65,5.92,2.64,1.91,5.41,3.88,8.68,4.45,3.51,.61,7.07-.48,10.62-.81,3.38-.31,6.79,.08,10.19,0,6.18-.14,12.19-1.79,18.12-3.43,2.63-.73,5.29-1.46,7.71-2.68,3.7-1.86,7.01-4.53,9.94-7.37-3.13,1.3-6.61,1.47-10.05,1.46l.03,.03Z"/>
    <path class="cls-1" d="M84.45,110.7c-.05-.57-.07-1.15-.07-1.72-.15,.11-.32,.25-.39,.42-.09,.22-.09,.46-.05,.69,.03,.21,.09,.42,.18,.61,.02,.05,.04,.09,.08,.12,.06,.04,.14,.05,.2,0s.08-.12,.06-.18c0,0,0,.07,0,.06Z"/>
    <path class="cls-1" d="M84.68,111.61c-.11-.52-.21-1.04-.27-1.56-.02-.19-.05-.4-.22-.5-.11-.06-.19,.04-.25,.14s-.08,.23-.08,.34c-.01,.42,.12,.86,.44,1.15,.15,.14,.39,.23,.38,.43Z"/>
  </g>
  <g>
    <path class="cls-1" d="M880.84,111.41c-2.29,.03-4.13,1.8-4.13,3.97v34.82c0,7.5,.48,12.25,1.45,14.25,1.84,3.83,6.19,5.75,13.03,5.75,10.18,0,20.24-2.64,30.2-7.94,9.96-5.29,18.58-12.6,25.86-21.93,2.37-3.08,4.08-5.04,5.13-5.87,1.05-.83,2.19-1.25,3.42-1.25,1.49,0,2.72,.52,3.68,1.56,.97,1.04,1.45,2.35,1.45,3.94,0,3.5-2.94,8.21-8.82,14.12-7.72,7.58-17.31,13.75-28.75,18.49-11.45,4.75-22.62,7.12-33.49,7.12-18.69,0-35.18-5.96-49.48-17.87-8.34-7-14.74-15.62-19.21-25.87-3.95-9-5.92-17.99-5.92-26.99s1.75-17.35,5.26-26.06c3.51-8.7,8.33-16.22,14.48-22.56,7.11-7.41,15.53-13.16,25.27-17.25,9.56-4,19.56-6,30-6,16.23,0,30.93,4.54,44.09,13.62,19.46,13.43,29.62,32.58,30.47,57.46,.08,2.26-1.81,4.14-4.19,4.14h-26.41l-39.48,.12-13.9,.19Zm25.5-8.08c2.26-.06,4.06-1.82,4.06-3.97v-32.56c-.18-7.81-.35-12.49-.53-14.03-.18-1.54-.79-2.97-1.84-4.3-2.46-3.24-7.46-4.86-15-4.86s-12.55,1.87-14.48,5.61c-1.23,2.25-1.84,8.1-1.84,17.58v32.57c0,2.14,1.79,3.9,4.05,3.97l11.87,.37c.09,0,.17,0,.26,0l13.44-.38Z"/>
    <path class="cls-1" d="M878.81,118.88c1.38-2.26,3.62-3.96,6.08-5.12s5.16-1.8,7.86-2.29c.25-.05,.53-.11,.67-.31,.27-.39-.2-.86-.63-1.1-1.97-1.12-4.14-1.91-6.39-2.32-1.9-.35-4.02-.39-5.59,.69-1.26,.86-2.03,2.36-3.49,2.86-.4,.14-.83,.19-1.24,.33-1.68,.58-2.41,2.48-2.51,4.17-.09,1.66,.22,3.33,.9,4.86,.69,1.54,1.52,3.03,2.19,4.57,.7-2.13,.93-4.32,2.15-6.32Z"/>
    <path class="cls-1" d="M898.01,108.02c-.1-.02,.06-.18,.09-.09"/>
    <path class="cls-1" d="M893.69,111.32c.26-.05,.52-.1,.78-.16-.03-.04-.07-.07-.12-.1-.35-.18-.78-.24-1.16-.11-.11,.04-.22,.1-.28,.19-.24,.37,.33,.25,.5,.22,.46-.08,.93-.1,1.38-.19-.09-.15-.23-.28-.38-.38-.06-.04-.13-.08-.21-.09s-.16,.01-.21,.07c-.03,.04-.07,.09-.15,.03-.04-.07-.13-.09-.22-.08s-.15,.06-.22,.1c-.09,.06-.18,.12-.27,.18"/>
    <path class="cls-1" d="M876.83,124.6c-.09,.3-.07,.62-.2,.91-.11-.26-.05-.57,.15-.77"/>
  </g>
  <g>
    <path class="cls-1" d="M512.97,111.47v38.74c0,7.5,.48,12.25,1.45,14.25,1.84,3.83,6.19,5.75,13.03,5.75,10.18,0,20.24-2.64,30.2-7.94,9.96-5.29,18.58-12.6,25.86-21.93,2.37-3.08,4.08-5.04,5.13-5.87,1.05-.83,2.19-1.25,3.42-1.25,1.49,0,2.72,.52,3.68,1.56,.97,1.04,1.45,2.35,1.45,3.94,0,3.5-2.94,8.21-8.82,14.12-7.72,7.58-17.31,13.75-28.75,18.49-11.45,4.75-22.62,7.12-33.49,7.12-18.69,0-35.18-5.96-49.48-17.87-8.34-7-14.74-15.62-19.21-25.87-3.95-9-5.92-17.99-5.92-26.99s1.75-17.35,5.26-26.06c3.51-8.7,8.33-16.22,14.48-22.56,7.11-7.41,15.53-13.16,25.27-17.25,9.56-4,19.56-6,30-6,16.23,0,30.93,4.54,44.09,13.62,18.82,12.98,28.94,31.32,30.36,55.01,.22,3.59-2.88,6.59-6.67,6.59h-23.82l-39.48,.12-18.03,.25Zm27.62-8.08c3.38-.1,6.07-2.73,6.07-5.94v-30.64c-.18-7.81-.35-12.49-.53-14.03-.18-1.54-.79-2.97-1.84-4.3-2.46-3.24-7.46-4.86-15-4.86s-12.55,1.87-14.48,5.61c-1.23,2.25-1.84,8.1-1.84,17.58v32.7c0,2.07,1.73,3.77,3.91,3.83l12.15,.38,11.56-.33Z"/>
    <path class="cls-1" d="M512.95,123.63c-.53-2.55-.07-5.28,1.28-7.55s3.58-4.05,6.15-4.93c-.16-.7-.84-1.16-1.53-1.44-.8-.31-1.7-.31-2.55-.25-1.6,.11-3.16,.53-4.59,1.22-.36,.18-.72,.38-1,.66-.33,.32-.55,.72-.72,1.14-.66,1.65-.46,3.52-.24,5.23,.2,1.56,.64,3.09,1.39,4.5,.41,.77,.92,1.51,1.81,1.42Z"/>
    <path class="cls-1" d="M522.31,108.99l-.06-.06"/>
    <path class="cls-1" d="M514.08,118.56c.04-.09,.08-.18,.12-.27,.59-1.27,1.45-2.43,2.5-3.38,.31-.28,.63-.54,.92-.84,.33-.35,.61-.74,.94-1.09,1.08-1.14,2.76-1.75,4.37-1.59-.08,.08-.5,.06-.58,.13-.76-.89-2.01-1.32-3.21-1.31s-2.37,.44-3.42,1.01c-2.44,1.32-4.38,3.49-5.25,6.03-.88,2.53-.67,5.41,.64,7.77,.35,.63,.98,1.11,1.72,1.22-.29-.04,.46-5.08,.57-5.55,.42-1.79,.97-3.23,2.36-4.54,1.13-1.07,2.42-1.98,3.76-2.79,.69-.42,1.44-.77,2.12-1.2s.95-.82,1.86-.83c.48,0,.96-.01,1.44-.02-.9-.09-1.8,.19-2.63,.5,.73-.25,1.45-.5,2.2-.68,.09-.02,.2-.04,.29-.01,.05,.02,.09,.05,.14,.06,.07,.02,.14,.01,.22,0,.3-.04,.6-.09,.9-.13-.4-.39-.88-.71-1.4-.93-.28,.57-1.61-.06-2.25-.08-.9-.03-1.8,.11-2.7,.18-.24,.02-.49,.03-.72,.12"/>
    <path class="cls-1" d="M520.09,112.57c.03,.06,.07,.12,.12,.18"/>
    <path class="cls-1" d="M520.43,112.77c.56-.31,1.15-.59,1.74-.83,.17-.07,.33-.13,.51-.18,.16-.04,.32-.06,.48-.09,.41-.06,.81-.12,1.22-.18,.16-.02,.33-.05,.49-.09,.09-.02,.17-.05,.26-.07,.12-.04,.23-.07,.35-.11-.69-.21-1.41-.31-2.13-.29-.21,0-.41,.02-.61,.07-.17,.04-.34,.1-.51,.16-.16,.06-.33,.13-.47,.23-.18,.12-.31,.29-.46,.44-.21,.23-.44,.44-.69,.63-.14,.11-.32,.24-.36,.41,.06-.04,.12-.08,.18-.12Z"/>
    <path class="cls-1" d="M526.91,111.35c-.66-.27-1.42,.01-2.08,.3-.61,.26-1.21,.52-1.82,.78,.09-.01,.16-.09,.17-.17"/>
    <path class="cls-1" d="M516.79,116.95c.79-.74,1.7-1.37,2.61-1.97,2.85-1.87,5.99-3.59,9.45-3.81-1.34-.94-3-1.45-4.67-1.43-1.25,.02-2.48,.33-3.68,.67-.93,.26-1.87,.55-2.71,1.02-1.15,.63-2.08,1.56-2.98,2.48-1.31,1.35-2.63,2.76-3.36,4.46-.55,1.29-.73,2.7-.62,4.08,.1,1.27,.39,3.1,1.18,4.17,1.04,1.39,.99-1.43,1.08-2.02,.21-1.35,.56-2.68,1.11-3.94,.61-1.38,1.46-2.67,2.58-3.73Z"/>
    <path class="cls-1" d="M535.1,122.43l-.87-.12"/>
  </g>
  <g>
    <path class="cls-1" d="M621.87,12.67c-.04-4.16,3.5-7.55,7.88-7.55h61.27c18.07,0,31.67,.83,40.8,2.5,22.55,4.08,40.75,15.5,54.61,34.24,10.88,14.75,16.32,30.99,16.32,48.74s-5.61,34.53-16.84,49.36c-13.51,17.91-31.15,29.03-52.9,33.37-5.61,1.08-10.62,1.75-15,2-4.39,.25-14.04,.37-28.95,.37h-58.17c-4.79,0-8.66-3.7-8.64-8.24l.36-74.24-.72-80.55Zm85.59,.33c-2.86,.07-5.14,2.28-5.16,4.99l-.75,95.6,.79,54.11c11.76-.08,20.2-.52,25.33-1.31,5.13-.79,11.03-2.56,17.7-5.31,15.7-6.41,28.03-16.75,36.98-30.99,7.81-12.25,11.71-25.49,11.71-39.74,0-15.5-4.6-29.74-13.8-42.74-16.38-23.08-40.65-34.62-72.8-34.62h0Z"/>
    <path class="cls-1" d="M701.31,104.12c-3.22,8.77-2.69,18.72,1.46,27.13,4.15,8.41,11.86,15.17,21.01,18.43,4.99,1.78,10.31,2.53,15.6,3.1,4.99,.53,9.99,.9,15.01,1.1,3.84,.16,8.05,.19,11.17-1.98-17.25,13.32-39.4,20.79-61.63,20.8-3.79,0-7.8-.28-10.89-2.35-2.94-1.97-4.6-5.32-5.19-8.69-.59-3.37-.22-6.82,.14-10.22,1.16-10.91,2.33-21.81,3.49-32.72,.15-1.4,.36-2.94,1.45-3.9,1.51-1.35,3.91-.96,5.92-.48"/>
    <path class="cls-1" d="M700.67,122.44h.03"/>
    <path class="cls-1" d="M702.68,131.15c.04,.13,.09,.27,0,.38-.06,.09-.19,.12-.3,.13-.51,.05-1.05-.17-1.36-.56-.23-.29-.33-.64-.41-.99-.27-1.2-.29-2.55,.32-3.67,.3-.55,.76-.56,.8,.1,.05,.74,.14,1.47,.28,2.2,.16,.82,.38,1.62,.66,2.41Z"/>
    <path class="cls-1" d="M763.24,149.37c.55-.14,1.1-.3,1.65-.47,.85-.26,1.7-.56,2.52-.89,.38-.15,2.33-.71,2.45-1.07-1.11,3.42-3.84,6.37-7.02,8.3-4.46,2.7-9.92,3.7-15.06,4.18-5.04,.47-10.12,.37-15.18,.04-4.24-.27-8.69-.23-12.74-1.64-5.06-1.76-8.95-5.59-13.38-8.5-1.96-1.29-4.07-2.42-5.72-4.04-2.44-2.39-3.69-5.62-4.88-8.75-.55-1.44-1.1-2.93-1.03-4.47,.09-1.97,1.21-3.76,2.29-5.44,.39-.61,.84-1.26,1.56-1.46,.93-.26,2.76-.19,2.85-1.11,.45,2.78,1.97,5.34,3.56,7.65,1.58,2.29,3.44,4.41,5.6,6.21,10.86,9.05,24.59,11.81,38.2,12.53,2.8,.15,5.61,.21,8.4-.04,2.3-.21,4.58-.64,6.79-1.27,1.46-.65,2.86-1.52,4.21-2.35,.25-.15,.52-.32,.81-.28s.55,.38,.36,.6"/>
  </g>
</svg>